Coordinates
version=1
nRows=6
nColumns=36
inDegrees=yes

Units are S.I. units (second, meters, Newtons, ...)
If the header above contains a line with 'inDegrees', this indicates whether rotational values are in degrees (yes) or radians (no).

endheader
time	pelvis_tilt	pelvis_list	pelvis_rotation	pelvis_tx	pelvis_ty	pelvis_tz	hip_flexion_r	hip_adduction_r	hip_rotation_r	knee_angle_r	knee_angle_r_beta	ankle_angle_r	subtalar_angle_r	mtp_angle_r	hip_flexion_l	hip_adduction_l	hip_rotation_l	knee_angle_l	knee_angle_l_beta	ankle_angle_l	subtalar_angle_l	mtp_angle_l	lumbar_extension	lumbar_bending	lumbar_rotation	arm_flex_r	arm_add_r	arm_rot_r	elbow_flex_r	pro_sup_r	arm_flex_l	arm_add_l	arm_rot_l	elbow_flex_l	pro_sup_l
      0.33000000	     -4.34776521	     -2.37834952	      9.16169222	      0.19636035	      0.94626362	     -0.19445367	     15.86494135	      6.27475163	     -2.62657116	     15.20937323	      0.26545364	      1.43901336	    -17.81689998	     -6.14343156	     24.94096714	      1.97818257	      9.61241087	     67.27742122	      1.17421251	     -8.95141900	    -27.34608723	     -6.14343156	     -6.25515471	     -0.01168039	     -5.67629524	     -4.55404094	     -9.52847470	      4.22247984	     40.10548566	    106.63259177	     -0.37355586	     -7.86728603	      3.65995777	     35.73863777	    101.74412458
      0.34000000	     -4.60547563	     -2.05235290	      8.58555270	      0.20877069	      0.94803315	     -0.19332433	     14.75429254	      6.16638716	     -2.46927329	     14.22203825	      0.24822139	      1.76688135	    -17.06130474	     -6.15437521	     26.32570888	      2.58886986	      9.40284586	     65.56305611	      1.14429120	     -8.50436228	    -27.08347839	     -6.15437521	     -6.07380692	     -0.50883518	     -4.96850318	     -3.53264418	     -9.87376921	      4.57040814	     41.09561757	    106.73395446	     -1.21902836	     -7.98541987	      3.80777656	     34.95578864	    101.81079473
      0.35000000	     -4.44684344	     -1.77073687	      7.90114842	      0.22123482	      0.95006866	     -0.19226325	     13.18551291	      6.12533893	     -2.45226192	     13.24463250	      0.23116245	      2.95859664	    -15.15122912	     -6.18951535	     27.10632747	      2.94398206	      9.05913026	     63.46566849	      1.10768488	     -7.55396830	    -26.14922772	     -6.18951535	     -6.39657732	     -0.86710303	     -3.87538358	     -2.60421378	    -10.71855856	      5.89870765	     42.41140361	    106.95124053	     -1.66123183	     -8.00587784	      4.16012210	     33.80830126	    102.09457012
      0.36000000	     -4.62064104	     -1.54760142	      7.28115412	      0.23361921	      0.95126049	     -0.19135775	     12.07706785	      6.00971671	     -2.74071741	     12.44471973	      0.21720133	      4.31395663	    -12.79268087	     -6.27300572	     28.19727345	      3.32257925	      8.89797814	     61.14213999	      1.06713165	     -6.59752235	    -24.95953720	     -6.27300572	     -6.27284579	     -1.19547611	     -3.16846778	     -1.43417269	    -11.39426396	      7.02945443	     43.32046379	    107.01707041	     -2.55159614	     -8.13564295	      4.29943635	     33.06571766	    102.63843923
      0.37000000	     -4.64754742	     -1.39723948	      6.60525985	      0.24599806	      0.95235653	     -0.19026573	     10.69645312	      6.08186719	     -2.50308705	     11.35017901	      0.19809799	      4.61638016	    -11.97982462	     -6.29220444	     28.98818140	      3.49066253	      8.68191549	     58.44227303	      1.02001009	     -6.38228258	    -24.45384477	     -6.29220444	     -6.33640101	     -1.46738360	     -2.22977429	     -0.43629505	    -12.02129499	      7.54577731	     44.53937367	    107.13106853	     -3.31573692	     -8.17288815	      4.05942176	     32.57802674	    102.64690818
      0.38000000	     -4.68131220	     -1.26884217	      6.00791871	      0.25840388	      0.95306436	     -0.18946142	      9.38310211	      6.07633026	     -2.65697282	     10.40867146	      0.18166559	      5.65366427	    -10.05923431	     -6.35138877	     29.66822477	      3.64033549	      8.55923619	     55.45250913	      0.96782886	     -5.75469332	    -23.46029415	     -6.35138877	     -6.37959817	     -1.66200507	     -1.55840909	      0.73726615	    -12.80027160	      8.71688872	     45.68344432	    107.23571275	     -4.24803328	     -8.13954030	      3.49815849	     32.26968703	    102.69862536
